<?xml version="1.0" standalone="no"?>
<!DOCTYPE svg PUBLIC "-//W3C//DTD SVG 20010904//EN" "http://www.w3.org/TR/2001/REC-SVG-20010904/DTD/svg10.dtd">
<svg xmlns="http://www.w3.org/2000/svg" version="1.0" width="512.000000pt" height="512.000000pt" viewBox="0 0 512.000000 512.000000" preserveAspectRatio="xMidYMid meet">
<metadata>
Created by potrace 1.16, written by Peter Selinger 2001-2019
<meta name="Producer" content="Online-Convert"/></metadata>
<g transform="translate(0.000000,512.000000) scale(0.100000,-0.100000)" fill="#fff" stroke="none">
<path d="M2004 4835 c-69 -41 -122 -139 -160 -295 l-18 -75 -55 -18 c-80 -26 -184 -100 -242 -171 -96 -117 -174 -313 -204 -516 -8 -52 -15 -100 -15 -106 0 -6 -39 -61 -87 -121 -259 -327 -467 -676 -500 -839 -28 -138 8 -247 118 -356 54 -53 90 -78 171 -117 123 -60 256 -95 343 -89 97 6 143 36 307 196 l147 144 107 20 c126 22 252 67 358 128 91 52 217 166 271 244 l38 55 36 -15 c20 -8 42 -22 49 -32 32 -41 -11 -174 -96 -299 -61 -90 -218 -234 -427 -393 -248 -188 -404 -343 -462 -455 -53 -103 -65 -150 -67 -263 l-1 -93 -82 -28 c-182 -63 -314 -172 -383 -315 -59 -124 -70 -196 -70 -474 0 -227 1 -241 21 -266 l20 -26 1620 0 c1599 0 1619 0 1639 20 11 11 22 31 26 45 4 15 4 133 1 263 -5 265 -18 339 -79 455 -43 83 -154 193 -240 237 l-66 34 35 70 c73 145 133 367 170 626 25 175 25 668 0 855 -70 523 -171 767 -422 1020 -271 272 -746 525 -1092 581 -46 7 -102 22 -125 32 -69 31 -160 106 -255 208 -104 114 -165 154 -238 154 -35 0 -62 -7 -91 -25z"/>
</g>
</svg>
