<?xml version="1.0" standalone="no"?>
<!DOCTYPE svg PUBLIC "-//W3C//DTD SVG 20010904//EN" "http://www.w3.org/TR/2001/REC-SVG-20010904/DTD/svg10.dtd">
<svg xmlns="http://www.w3.org/2000/svg" version="1.0" width="512.000000pt" height="512.000000pt" viewBox="0 0 512.000000 512.000000" preserveAspectRatio="xMidYMid meet">
<metadata>
Created by potrace 1.16, written by Peter Selinger 2001-2019
<meta name="Producer" content="Online-Convert"/></metadata>
<g transform="translate(0.000000,512.000000) scale(0.100000,-0.100000)" fill="#000000" stroke="none">
<path d="M1007 5094 c-18 -18 -28 -41 -32 -77 -4 -29 -5 -245 -3 -482 l3 -430 29 -62 c33 -73 103 -144 174 -176 l47 -22 1330 0 1330 0 47 22 c62 28 134 97 163 154 14 26 29 75 35 110 11 69 14 838 4 901 -4 21 -18 49 -32 63 l-25 25 -307 0 -307 0 -27 -26 -26 -27 0 -223 c0 -216 -6 -269 -33 -286 -7 -4 -105 -8 -218 -8 -180 0 -208 2 -220 17 -11 12 -15 74 -19 260 l-5 245 -28 24 -28 24 -304 0 -304 0 -28 -24 -28 -24 -5 -245 c-4 -186 -8 -248 -19 -260 -12 -15 -40 -17 -220 -17 -113 0 -211 4 -218 8 -27 17 -33 70 -33 286 l0 223 -26 27 -27 26 -307 0 -307 0 -26 -26z"/>
<path d="M1377 2703 c-76 -467 -138 -851 -137 -855 0 -5 594 -8 1320 -8 l1320 0 -5 23 c-5 21 -275 1674 -275 1683 0 2 -469 4 -1043 4 l-1042 0 -138 -847z"/>
<path d="M1037 1536 c-125 -45 -198 -147 -213 -293 l-7 -73 1738 0 1738 0 -7 73 c-12 126 -69 218 -168 273 l-53 29 -1495 2 c-1240 2 -1501 0 -1533 -11z"/>
<path d="M769 853 c-76 -38 -158 -123 -200 -208 -33 -68 -34 -73 -34 -195 0 -122 1 -127 34 -195 45 -92 124 -171 216 -216 l70 -34 1700 0 1700 0 70 34 c92 46 171 125 215 216 30 62 35 81 38 172 4 84 1 112 -17 165 -39 116 -130 221 -236 269 -38 18 -114 19 -1771 19 l-1730 0 -55 -27z"/>
</g>
</svg>
