<?xml version="1.0" standalone="no"?>
<!DOCTYPE svg PUBLIC "-//W3C//DTD SVG 20010904//EN" "http://www.w3.org/TR/2001/REC-SVG-20010904/DTD/svg10.dtd">
<svg xmlns="http://www.w3.org/2000/svg" version="1.0" width="512.000000pt" height="512.000000pt" viewBox="0 0 512.000000 512.000000" preserveAspectRatio="xMidYMid meet">
<metadata>
Created by potrace 1.16, written by Peter Selinger 2001-2019
<meta name="Producer" content="Online-Convert"/></metadata>
<g transform="translate(0.000000,512.000000) scale(0.100000,-0.100000)" fill="#000000" stroke="none">
<path d="M2350 4904 c-113 -31 -193 -98 -244 -204 -30 -63 -31 -70 -31 -195 0 -105 5 -145 23 -209 l23 -79 -131 -125 c-546 -521 -832 -1163 -781 -1753 27 -316 130 -626 300 -908 28 -46 50 -85 49 -86 -2 -2 -41 -12 -87 -24 -232 -60 -383 -169 -466 -337 -56 -113 -65 -175 -65 -456 0 -235 1 -249 20 -268 20 -20 33 -20 1600 -20 1567 0 1580 0 1600 20 19 19 20 33 20 268 0 280 -9 341 -64 455 -80 166 -245 285 -466 338 -30 7 -59 16 -64 20 -4 4 5 27 21 51 59 85 115 191 164 305 258 600 173 1301 -232 1913 -93 141 -249 308 -334 359 -68 42 -131 46 -186 15 -138 -80 -249 -496 -309 -1164 -11 -124 -23 -253 -26 -287 l-6 -63 -148 0 c-144 0 -150 1 -162 23 -21 37 -23 342 -3 499 30 241 91 474 169 642 18 41 71 132 117 203 248 382 333 693 244 891 -33 73 -84 123 -164 161 -51 23 -69 26 -191 28 -96 2 -151 -2 -190 -13z m288 -166 c58 -15 108 -71 117 -133 23 -151 -67 -396 -246 -670 -192 -293 -298 -639 -329 -1073 -11 -158 -1 -332 25 -420 19 -62 64 -117 108 -131 18 -5 130 -11 250 -14 195 -3 220 -2 247 14 35 22 34 16 55 308 27 392 90 818 151 1025 27 93 68 186 83 186 17 0 88 -58 139 -114 197 -217 362 -526 446 -836 46 -170 60 -281 59 -475 0 -156 -3 -197 -26 -306 -53 -251 -163 -500 -304 -684 l-38 -50 -810 3 -810 2 -60 93 c-88 136 -188 341 -233 481 -193 589 -74 1162 357 1716 87 113 277 307 390 400 55 44 94 85 98 99 3 14 0 43 -6 65 -78 251 -81 354 -13 445 56 76 208 106 350 69z m803 -3552 c328 -44 498 -158 554 -371 11 -43 15 -110 15 -237 l0 -178 -1450 0 -1450 0 0 178 c0 247 21 322 123 429 88 94 258 160 466 182 42 5 427 9 856 9 619 1 802 -1 886 -12z"/>
</g>
</svg>
