<?xml version="1.0" standalone="no"?>
<!DOCTYPE svg PUBLIC "-//W3C//DTD SVG 20010904//EN" "http://www.w3.org/TR/2001/REC-SVG-20010904/DTD/svg10.dtd">
<svg xmlns="http://www.w3.org/2000/svg" version="1.0" width="512.000000pt" height="512.000000pt" viewBox="0 0 512.000000 512.000000" preserveAspectRatio="xMidYMid meet">
<metadata>
Created by potrace 1.16, written by Peter Selinger 2001-2019
<meta name="Producer" content="Online-Convert"/></metadata>
<g transform="translate(0.000000,512.000000) scale(0.100000,-0.100000)" fill="#000000" stroke="none">
<path d="M2155 4905 l-25 -24 0 -321 0 -320 -154 0 c-217 0 -200 23 -204 -272 -4 -306 -22 -281 206 -288 l169 -5 -36 -117 c-20 -64 -39 -120 -43 -123 -3 -3 -29 8 -58 25 -179 106 -415 155 -634 132 -328 -34 -618 -194 -805 -443 -186 -246 -266 -520 -227 -775 38 -252 160 -502 379 -777 101 -127 283 -314 417 -430 58 -50 106 -94 108 -98 2 -4 -10 -15 -26 -23 -105 -54 -196 -167 -235 -291 -20 -63 -22 -91 -22 -293 l0 -224 28 -24 28 -24 1584 2 1584 3 23 23 c23 22 23 27 23 240 0 152 -4 233 -14 272 -35 137 -128 255 -254 320 -37 19 -67 38 -67 41 0 3 45 45 100 93 420 369 702 788 771 1146 16 85 16 269 0 345 -36 165 -111 327 -216 467 -281 374 -777 541 -1221 412 -78 -22 -230 -90 -262 -116 -7 -6 -16 -8 -19 -4 -4 4 -24 60 -44 124 l-36 117 168 3 c226 3 209 -19 209 284 l0 229 -25 24 c-24 24 -28 25 -180 25 l-155 0 0 320 0 321 -25 24 -24 25 -381 0 -381 0 -24 -25z m665 -461 l0 -316 29 -29 29 -29 151 0 151 0 0 -110 0 -110 -160 0 c-287 0 -287 -1 -149 -425 58 -178 77 -215 116 -216 52 -2 65 3 126 48 325 239 779 224 1125 -36 271 -205 425 -573 362 -866 -63 -295 -254 -590 -602 -930 -202 -199 -301 -278 -337 -270 -109 23 -229 27 -966 32 -814 5 -954 1 -1151 -33 l-93 -16 -33 23 c-124 88 -414 368 -543 524 -163 195 -294 432 -341 612 -35 132 -37 275 -5 387 61 218 172 391 336 522 340 273 811 294 1142 51 61 -45 74 -50 125 -48 38 1 60 43 117 218 139 420 137 423 -149 423 l-160 0 0 110 0 110 151 0 151 0 29 29 29 29 0 316 0 316 260 0 260 0 0 -316z m750 -3446 c215 -39 330 -87 408 -172 72 -79 84 -120 89 -308 l5 -158 -1472 0 -1473 0 6 158 c6 188 18 230 89 308 59 64 150 112 273 143 70 18 120 25 305 45 19 2 406 2 860 1 684 -2 840 -5 910 -17z"/>
<path d="M1457 2809 c-103 -24 -188 -95 -233 -194 -23 -49 -28 -78 -32 -162 -4 -87 -2 -107 13 -130 44 -67 518 -664 535 -673 10 -6 96 -10 195 -10 174 0 176 0 201 25 l25 25 -3 412 c-3 409 -3 413 -26 460 -56 113 -195 200 -379 237 -104 22 -229 26 -296 10z m229 -170 c142 -25 244 -76 284 -142 19 -30 20 -52 20 -359 l0 -328 -83 0 -83 0 -232 296 c-215 275 -232 299 -232 336 0 93 52 177 123 197 44 13 132 13 203 0z"/>
<path d="M3360 2799 c-179 -38 -317 -127 -372 -237 -23 -47 -23 -51 -26 -460 l-3 -412 25 -25 c25 -25 27 -25 201 -25 98 0 185 4 195 10 17 9 491 606 535 673 28 43 18 212 -17 289 -37 80 -96 140 -171 173 -85 39 -228 44 -367 14z m318 -181 c47 -32 74 -85 80 -158 l4 -55 -233 -298 -233 -297 -83 0 -83 0 0 328 c0 304 1 329 19 358 55 91 234 156 408 150 68 -2 88 -7 121 -28z"/>
</g>
</svg>
