<?xml version="1.0" standalone="no"?>
<!DOCTYPE svg PUBLIC "-//W3C//DTD SVG 20010904//EN" "http://www.w3.org/TR/2001/REC-SVG-20010904/DTD/svg10.dtd">
<svg xmlns="http://www.w3.org/2000/svg" version="1.0" width="512.000000pt" height="512.000000pt" viewBox="0 0 512.000000 512.000000" preserveAspectRatio="xMidYMid meet">
<metadata>
Created by potrace 1.16, written by Peter Selinger 2001-2019
<meta name="Producer" content="Online-Convert"/></metadata>
<g transform="translate(0.000000,512.000000) scale(0.100000,-0.100000)" fill="#000000" stroke="none">
<path d="M3322 5100 c-97 -26 -216 -89 -300 -159 -63 -54 -73 -59 -133 -65 -240 -26 -551 -124 -756 -237 -189 -106 -398 -279 -533 -444 -429 -525 -560 -1324 -380 -2324 11 -62 19 -115 18 -116 -2 -1 -32 -17 -68 -36 -84 -43 -223 -180 -267 -264 -61 -116 -78 -187 -78 -325 0 -159 28 -259 105 -380 l29 -45 -88 -352 -89 -353 1659 0 c1123 0 1659 3 1659 10 0 6 -39 164 -86 353 -64 255 -83 346 -75 357 38 53 83 146 103 210 19 62 23 96 22 200 0 110 -4 135 -28 205 -15 44 -41 105 -58 135 -43 76 -178 207 -255 248 l-62 33 7 47 c4 26 7 108 6 182 -1 152 -15 219 -70 338 -54 117 -115 194 -315 394 -160 160 -192 196 -223 258 -27 54 -36 85 -36 121 0 27 1 49 3 49 1 0 36 -9 77 -21 131 -36 194 -74 355 -213 44 -38 111 -83 148 -101 337 -163 719 76 720 450 0 80 -5 104 -45 225 -118 350 -318 720 -525 968 l-70 83 63 257 c35 141 64 260 64 263 0 3 -37 19 -82 34 -112 38 -303 45 -416 15z m118 -295 c0 -3 -20 -87 -45 -186 l-46 -181 66 -69 c163 -173 309 -388 425 -624 78 -161 161 -366 179 -445 20 -88 -28 -181 -114 -221 -83 -39 -135 -20 -280 102 -164 138 -272 196 -449 243 -110 29 -186 66 -221 108 -33 39 -65 130 -65 183 0 38 -3 45 -22 50 -23 5 -273 45 -283 45 -11 0 -4 -159 10 -224 18 -85 64 -185 111 -243 35 -42 35 -43 25 -100 -14 -74 -14 -198 0 -265 17 -79 73 -194 134 -273 29 -38 126 -141 214 -227 240 -234 284 -314 285 -508 1 -63 -2 -127 -7 -142 l-7 -28 -899 0 -899 0 -12 53 c-19 88 -58 345 -72 477 -17 162 -17 595 1 720 47 343 146 621 304 855 81 120 256 293 377 374 246 164 533 265 834 292 l124 12 63 64 c72 75 115 105 196 139 60 24 73 28 73 19z m-7 -3315 c75 -11 148 -44 201 -90 71 -63 126 -183 126 -275 0 -50 -24 -136 -53 -187 l-21 -38 -1242 0 -1243 0 -33 67 c-30 61 -33 76 -33 158 0 82 3 97 33 157 55 112 160 190 280 207 82 12 1902 13 1985 1z m236 -1027 c19 -76 36 -144 39 -150 3 -10 -253 -13 -1263 -13 -1010 0 -1266 3 -1263 12 3 7 20 75 39 151 l33 137 1191 0 1191 0 33 -137z"/>
</g>
</svg>
