<?xml version="1.0" standalone="no"?>
<!DOCTYPE svg PUBLIC "-//W3C//DTD SVG 20010904//EN" "http://www.w3.org/TR/2001/REC-SVG-20010904/DTD/svg10.dtd">
<svg xmlns="http://www.w3.org/2000/svg" version="1.0" width="512.000000pt" height="512.000000pt" viewBox="0 0 512.000000 512.000000" preserveAspectRatio="xMidYMid meet">
<metadata>
Created by potrace 1.16, written by Peter Selinger 2001-2019
<meta name="Producer" content="Online-Convert"/></metadata>
<g transform="translate(0.000000,512.000000) scale(0.100000,-0.100000)" fill="#000000" stroke="none">
<path d="M2391 5110 c-175 -37 -318 -115 -447 -244 -107 -107 -169 -207 -217 -346 -31 -93 -32 -99 -31 -270 0 -165 2 -180 28 -260 34 -103 61 -156 120 -243 l45 -66 -42 -12 c-120 -32 -225 -120 -280 -237 -30 -63 -32 -73 -32 -182 0 -109 2 -119 32 -182 68 -145 201 -237 353 -246 94 -5 88 11 65 -182 -49 -418 -197 -812 -398 -1059 -49 -61 -55 -65 -113 -77 -152 -30 -268 -131 -323 -277 -29 -79 -29 -214 0 -291 l20 -55 -60 -60 c-44 -42 -72 -81 -98 -137 l-38 -79 -3 -250 c-4 -279 -1 -296 63 -335 32 -20 56 -20 1525 -20 1469 0 1493 0 1525 20 64 39 67 56 63 335 l-3 250 -38 79 c-26 55 -54 95 -97 137 l-60 59 20 60 c27 81 27 200 -1 282 -49 147 -168 251 -321 282 -60 12 -65 16 -115 77 -200 246 -350 643 -398 1056 -23 197 -29 180 65 185 152 9 285 101 353 246 30 63 32 73 32 182 0 108 -2 119 -31 181 -55 116 -139 191 -257 230 l-65 21 44 66 c59 86 86 139 120 242 27 80 28 95 28 260 0 170 0 177 -32 270 -46 139 -109 239 -216 346 -108 108 -208 170 -346 216 -86 28 -108 31 -245 34 -82 2 -170 -1 -194 -6z m309 -315 c98 -26 180 -74 255 -150 113 -112 165 -237 165 -395 0 -159 -52 -283 -165 -396 -111 -111 -242 -166 -395 -166 -153 0 -284 55 -395 166 -113 113 -165 237 -165 396 0 47 7 110 15 140 51 192 209 352 401 405 66 18 216 18 284 0z m474 -1422 c25 -4 50 -18 72 -40 29 -29 34 -40 34 -83 0 -43 -5 -54 -34 -83 -22 -22 -47 -36 -72 -40 -22 -4 -298 -7 -614 -7 -316 0 -592 3 -614 7 -25 4 -50 18 -72 40 -29 29 -34 40 -34 83 0 43 4 54 35 84 19 19 47 36 62 39 46 7 1195 7 1237 0z m-356 -693 c34 -397 145 -770 321 -1074 28 -49 51 -90 51 -92 0 -2 -283 -4 -630 -4 -346 0 -630 2 -630 4 0 1 25 47 56 101 173 300 281 669 316 1073 l12 132 246 0 246 0 12 -140z m756 -1477 c25 -4 50 -18 72 -40 29 -29 34 -40 34 -83 0 -43 -5 -54 -34 -83 -22 -22 -47 -36 -72 -40 -51 -9 -1977 -9 -2028 0 -25 4 -50 18 -72 40 -29 29 -34 40 -34 83 0 43 4 54 35 84 19 19 47 36 62 39 46 7 1995 7 2037 0z m136 -564 c101 -22 140 -94 140 -259 l0 -80 -1290 0 -1290 0 0 80 c0 161 39 237 132 258 63 14 2242 15 2308 1z"/>
</g>
</svg>
