<?xml version="1.0" standalone="no"?>
<!DOCTYPE svg PUBLIC "-//W3C//DTD SVG 20010904//EN" "http://www.w3.org/TR/2001/REC-SVG-20010904/DTD/svg10.dtd">
<svg xmlns="http://www.w3.org/2000/svg" version="1.0" width="512.000000pt" height="512.000000pt" viewBox="0 0 512.000000 512.000000" preserveAspectRatio="xMidYMid meet">
<metadata>
Created by potrace 1.16, written by Peter Selinger 2001-2019
<meta name="Producer" content="Online-Convert"/></metadata>
<g transform="translate(0.000000,512.000000) scale(0.100000,-0.100000)" fill="#000000" stroke="none">
<path d="M1770 4689 c-216 -23 -399 -183 -455 -399 -23 -87 -17 -232 13 -315 40 -109 127 -217 220 -272 l42 -25 0 -81 c0 -45 -7 -230 -15 -412 -8 -181 -15 -338 -15 -349 0 -13 -36 16 -121 95 -67 63 -137 128 -156 144 l-35 30 26 77 c35 103 36 242 3 339 -79 231 -270 369 -511 369 -154 0 -276 -50 -381 -155 -104 -104 -155 -229 -155 -380 0 -151 51 -276 156 -382 59 -59 186 -133 227 -133 9 0 23 -12 31 -27 28 -56 647 -1465 644 -1467 -2 -2 -28 -16 -58 -32 -68 -36 -156 -123 -192 -190 -49 -90 -58 -156 -58 -415 l0 -236 26 -24 26 -24 1530 0 1530 0 24 28 c24 28 24 29 24 260 0 255 -10 321 -58 411 -36 67 -124 154 -192 190 -30 16 -56 30 -58 32 -3 2 616 1411 644 1467 8 15 22 27 31 27 9 0 49 16 91 36 323 155 394 602 137 859 -105 105 -227 155 -380 155 -242 0 -433 -138 -512 -369 -33 -97 -32 -236 3 -339 l26 -77 -45 -40 c-25 -22 -95 -87 -156 -144 -78 -73 -111 -98 -111 -85 0 11 -7 168 -15 349 -8 182 -15 367 -15 412 l0 81 43 25 c64 38 161 147 195 219 142 301 -12 651 -328 749 -74 23 -205 27 -285 9 -185 -41 -353 -210 -395 -395 -15 -67 -15 -191 0 -257 17 -74 75 -182 130 -242 l47 -50 -167 -415 -167 -416 -43 0 -42 0 -168 415 -167 416 48 53 c91 102 141 227 141 361 1 145 -44 265 -139 369 -116 129 -279 188 -463 170z m181 -185 c194 -61 301 -284 229 -477 -30 -80 -111 -165 -192 -203 -55 -25 -75 -29 -153 -29 -77 0 -98 4 -147 27 -79 37 -142 98 -181 177 -29 60 -32 74 -32 161 0 85 3 101 29 153 35 69 118 150 183 179 84 37 171 41 264 12z m1467 -6 c70 -26 159 -109 197 -185 27 -52 30 -68 30 -153 0 -87 -3 -101 -32 -161 -39 -79 -102 -140 -181 -177 -49 -23 -70 -27 -147 -27 -118 0 -191 31 -269 116 -69 74 -97 145 -97 244 0 262 251 434 499 343z m-2498 -810 c71 -35 143 -107 178 -178 24 -49 27 -66 27 -155 0 -82 -4 -109 -22 -148 -31 -66 -115 -152 -182 -184 -50 -25 -67 -28 -156 -28 -93 0 -104 2 -160 32 -73 38 -134 100 -172 173 -25 50 -28 65 -28 155 1 119 19 168 91 245 87 93 155 121 284 117 69 -2 95 -7 140 -29z m3592 -1 c66 -32 151 -118 181 -184 18 -39 22 -66 22 -148 0 -90 -3 -106 -28 -155 -38 -73 -99 -135 -172 -173 -56 -30 -67 -32 -160 -32 -91 0 -105 3 -158 29 -69 35 -150 118 -179 183 -29 65 -36 182 -14 255 29 100 120 197 223 239 73 29 210 23 285 -14z m-2301 -482 c117 -290 185 -445 199 -457 19 -15 42 -18 152 -18 120 0 130 1 151 23 13 12 96 204 196 452 95 237 176 434 180 438 4 4 34 1 66 -8 33 -8 92 -15 132 -15 l73 0 0 -42 c1 -126 40 -976 45 -991 11 -26 62 -49 94 -42 16 3 114 86 251 214 l225 208 50 -38 c62 -47 144 -85 213 -100 29 -6 50 -14 48 -17 -2 -4 -140 -315 -306 -691 -165 -377 -305 -692 -310 -702 -9 -15 -15 -15 -72 -4 -157 33 -288 36 -1118 32 -826 -4 -894 -7 -1007 -41 -18 -5 -15 -13 -590 1295 l-51 118 51 11 c68 14 150 52 212 99 l50 38 225 -208 c137 -128 235 -211 251 -214 32 -7 83 16 94 42 5 15 44 865 45 991 l0 42 78 1 c42 0 97 6 122 14 25 7 51 12 59 11 9 -1 79 -161 192 -441z m1319 -1949 c233 -46 355 -118 412 -241 21 -45 23 -67 26 -237 l4 -188 -1412 0 -1412 0 4 188 c3 171 5 192 27 239 26 58 97 130 157 161 81 41 248 82 379 95 22 2 420 3 885 2 748 -2 855 -4 930 -19z"/>
</g>
</svg>
