<?xml version="1.0" standalone="no"?>
<!DOCTYPE svg PUBLIC "-//W3C//DTD SVG 20010904//EN" "http://www.w3.org/TR/2001/REC-SVG-20010904/DTD/svg10.dtd">
<svg xmlns="http://www.w3.org/2000/svg" version="1.0" width="512.000000pt" height="512.000000pt" viewBox="0 0 512.000000 512.000000" preserveAspectRatio="xMidYMid meet">
<metadata>
Created by potrace 1.16, written by Peter Selinger 2001-2019
<meta name="Producer" content="Online-Convert"/></metadata>
<g transform="translate(0.000000,512.000000) scale(0.100000,-0.100000)" fill="#000000" stroke="none">
<path d="M962 5094 c-57 -28 -102 -80 -124 -142 -10 -28 -13 -148 -13 -517 0 -437 2 -485 18 -540 41 -133 132 -242 252 -301 90 -44 148 -54 312 -54 133 0 133 0 128 -22 -5 -21 -345 -2103 -345 -2112 0 -2 -33 -5 -73 -8 -124 -8 -212 -70 -265 -187 -22 -47 -26 -73 -30 -195 l-5 -141 -51 -24 c-73 -35 -156 -122 -197 -206 -33 -68 -34 -73 -34 -195 0 -122 1 -127 34 -195 45 -92 124 -171 216 -216 l70 -34 1700 0 1700 0 70 34 c92 46 171 125 215 216 30 62 35 81 38 172 5 119 -15 194 -73 281 -39 57 -131 135 -181 154 l-31 11 -5 142 c-4 124 -8 148 -30 196 -53 116 -142 179 -262 187 l-71 4 -173 1062 c-95 583 -173 1064 -172 1069 0 4 58 7 129 7 70 0 153 4 182 10 83 15 187 71 248 133 66 67 95 113 123 197 21 62 22 85 26 507 2 278 0 468 -7 509 -13 87 -51 149 -115 189 l-49 30 -347 0 -347 0 -49 -30 c-30 -19 -60 -49 -79 -79 l-30 -49 -3 -204 -3 -203 -94 0 -93 0 -4 198 c-3 222 -10 247 -84 312 -68 59 -72 60 -429 60 -357 0 -361 -1 -429 -60 -74 -65 -81 -90 -84 -312 l-4 -198 -93 0 -94 0 -3 203 -3 204 -30 49 c-19 30 -49 60 -79 79 l-49 30 -336 3 -336 3 -53 -27z m579 -482 c4 -200 5 -209 30 -257 18 -35 39 -59 74 -80 l48 -30 241 -3 c203 -3 247 -1 283 13 50 19 109 83 123 134 5 20 10 125 10 234 l0 197 205 0 205 0 0 -197 c0 -109 5 -214 10 -234 14 -51 73 -115 123 -134 36 -14 80 -16 283 -13 l241 3 48 30 c35 21 56 45 74 80 25 48 26 57 30 257 l3 208 205 0 204 0 -3 -417 c-3 -453 -3 -447 -60 -500 -59 -56 10 -53 -1363 -53 -1373 0 -1304 -3 -1363 53 -57 53 -57 47 -60 500 l-3 417 204 0 205 0 3 -208z m1723 -1099 c14 -66 345 -2107 342 -2110 -1 -2 -475 -2 -1052 -1 l-1050 3 107 655 c59 360 138 841 175 1068 l67 412 703 0 702 0 6 -27z m714 -2520 l3 -93 -1426 0 -1425 0 0 88 c0 49 3 92 7 95 3 4 644 6 1422 5 l1416 -3 3 -92z m218 -419 c97 -46 99 -198 2 -251 -31 -17 -112 -18 -1643 -18 -1531 0 -1612 1 -1643 18 -96 52 -96 203 1 251 29 14 187 16 1640 16 1457 0 1612 -2 1643 -16z"/>
</g>
</svg>
