<?xml version="1.0" standalone="no"?>
<!DOCTYPE svg PUBLIC "-//W3C//DTD SVG 20010904//EN" "http://www.w3.org/TR/2001/REC-SVG-20010904/DTD/svg10.dtd">
<svg xmlns="http://www.w3.org/2000/svg" version="1.0" width="800.000000pt" height="782.000000pt" viewBox="0 0 800.000000 782.000000" preserveAspectRatio="xMidYMid meet">
<metadata>
Created by potrace 1.16, written by Peter Selinger 2001-2019
<meta name="Producer" content="Online-Convert"/></metadata>
<g transform="translate(0.000000,782.000000) scale(0.100000,-0.100000)" fill="#000000" stroke="none">
<path d="M3875 7808 c-2 -7 -6 -89 -10 -183 -4 -93 -7 -171 -8 -172 -1 -1 -101 -4 -222 -8 -121 -3 -248 -8 -282 -11 l-63 -6 0 -127 0 -128 283 -7 c155 -5 283 -9 283 -9 1 -1 4 -133 7 -292 l6 -291 -127 -63 c-70 -35 -154 -82 -187 -106 -213 -151 -369 -444 -405 -760 -20 -181 -10 -328 42 -608 17 -92 28 -170 25 -173 -3 -4 -45 25 -93 62 -263 209 -319 252 -424 323 -447 303 -890 472 -1301 497 -307 18 -656 -81 -885 -252 -201 -150 -354 -355 -448 -600 -57 -151 -66 -210 -66 -431 0 -221 11 -289 73 -450 84 -217 165 -347 465 -746 266 -354 458 -646 599 -907 l40 -75 34 -385 c41 -470 40 -570 -1 -935 -38 -333 -37 -371 11 -421 37 -39 284 -165 444 -227 439 -170 952 -274 1510 -307 222 -13 1401 -13 1620 0 690 41 1228 162 1717 385 166 76 255 130 279 168 27 45 25 118 -12 435 -38 324 -36 457 10 970 l31 334 106 181 c152 259 281 451 524 777 252 338 325 448 400 595 105 205 150 389 150 606 0 342 -125 650 -360 890 -197 200 -402 309 -697 368 -327 67 -692 12 -1101 -164 -298 -129 -554 -292 -921 -587 -119 -96 -151 -118 -151 -104 0 2 13 73 29 158 43 226 54 342 48 512 -7 215 -39 349 -124 521 -109 220 -235 342 -475 461 l-98 49 0 296 0 297 275 7 275 7 0 129 0 128 -52 5 c-29 3 -152 8 -273 11 -121 4 -221 7 -222 8 -1 1 -5 84 -9 185 l-7 182 -129 0 c-94 0 -130 -3 -133 -12z"/>
</g>
</svg>
