<?xml version="1.0" standalone="no"?>
<!DOCTYPE svg PUBLIC "-//W3C//DTD SVG 20010904//EN" "http://www.w3.org/TR/2001/REC-SVG-20010904/DTD/svg10.dtd">
<svg xmlns="http://www.w3.org/2000/svg" version="1.0" width="1049.000000pt" height="922.000000pt" viewBox="0 0 1049.000000 922.000000" preserveAspectRatio="xMidYMid meet">
<metadata>
Created by potrace 1.16, written by Peter Selinger 2001-2019
<meta name="Producer" content="Online-Convert"/></metadata>
<g transform="translate(0.000000,922.000000) scale(0.100000,-0.100000)" fill="#fff" stroke="none">
<path d="M3633 8670 c-276 -50 -482 -292 -485 -570 -2 -187 73 -349 215 -468 91 -75 237 -131 344 -132 l41 0 -5 -37 c-2 -21 -73 -670 -157 -1442 l-152 -1403 -134 114 c-193 163 -1177 987 -1636 1370 -216 180 -394 330 -397 335 -3 4 12 36 33 71 57 93 81 172 87 282 10 173 -49 324 -172 445 -186 184 -441 224 -681 105 -203 -100 -338 -335 -320 -556 26 -331 301 -573 625 -551 47 3 108 13 134 23 26 9 49 15 51 13 2 -2 348 -848 770 -1878 422 -1031 769 -1877 771 -1879 2 -3 50 16 107 41 115 51 233 88 371 114 86 17 221 18 2197 18 1976 0 2111 -1 2197 -18 138 -26 256 -63 371 -114 57 -25 105 -44 107 -41 2 2 349 848 771 1879 422 1030 768 1876 770 1878 2 2 25 -4 51 -13 126 -44 312 -27 440 39 232 122 361 387 309 635 -49 235 -230 417 -461 465 -195 41 -387 -17 -531 -160 -123 -123 -181 -273 -171 -445 6 -110 30 -189 87 -282 21 -35 36 -66 33 -71 -2 -4 -305 -258 -671 -564 -767 -641 -1399 -1171 -1457 -1222 l-39 -35 -152 1405 c-84 772 -155 1421 -157 1442 l-5 37 41 0 c107 1 253 57 344 132 273 227 290 633 36 880 -111 109 -247 162 -408 162 -114 0 -159 -11 -264 -61 -56 -27 -94 -55 -151 -112 -119 -120 -170 -245 -170 -418 0 -112 31 -220 88 -309 47 -72 150 -170 215 -204 38 -20 47 -29 43 -45 -8 -31 -1260 -2935 -1266 -2935 -6 0 -1258 2904 -1266 2935 -4 16 5 25 43 45 65 34 168 132 215 204 57 89 88 197 88 309 0 170 -51 298 -165 413 -79 80 -134 115 -234 150 -78 27 -209 38 -288 24z m1745 -4899 c72 -121 132 -225 132 -231 0 -14 -262 -450 -270 -450 -8 0 -270 436 -270 450 0 13 262 450 270 450 3 0 65 -99 138 -219z m-1258 -130 l102 -170 -103 -170 c-56 -94 -106 -171 -109 -171 -4 0 -53 77 -110 170 l-103 171 19 32 c120 203 190 314 195 311 3 -2 52 -80 109 -173z m2560 -170 c0 -11 -203 -341 -210 -341 -3 0 -53 77 -109 171 l-103 170 82 137 c46 75 94 154 107 175 l24 39 105 -172 c57 -95 104 -175 104 -179z m-3652 -71 l88 -145 -84 -140 c-46 -77 -89 -146 -94 -152 -8 -10 -35 27 -103 139 l-92 152 89 148 c50 82 94 148 99 146 5 -2 48 -68 97 -148z m4620 2 l89 -148 -93 -154 -93 -153 -33 53 c-18 29 -60 99 -94 154 l-60 101 90 148 c49 81 93 147 97 147 4 0 48 -67 97 -148z"/>
<path d="M3145 2459 c-320 -42 -612 -191 -839 -430 -88 -92 -212 -267 -199 -280 5 -3 101 -41 214 -83 l206 -77 389 146 389 146 392 -146 392 -147 390 147 391 146 390 -146 390 -146 390 146 390 146 391 -146 391 -147 390 147 391 146 190 -71 c104 -39 192 -69 194 -66 8 8 -64 122 -127 200 -113 142 -302 296 -459 376 -89 44 -238 97 -346 122 l-100 22 -2065 2 c-1187 1 -2095 -2 -2135 -7z"/>
<path d="M2925 1644 c-209 -79 -387 -143 -396 -144 -9 0 -83 25 -165 56 -82 31 -184 69 -227 85 l-78 29 -24 -54 c-52 -119 -105 -340 -105 -442 l0 -44 3310 0 3310 0 0 44 c0 72 -28 215 -66 332 l-35 111 -222 83 c-122 46 -229 83 -237 82 -8 0 -183 -64 -389 -141 -206 -78 -381 -141 -390 -141 -9 0 -188 65 -399 144 l-382 144 -382 -144 c-210 -79 -389 -144 -397 -144 -9 0 -188 65 -398 144 l-383 144 -382 -144 c-211 -79 -390 -144 -399 -144 -9 0 -155 52 -325 116 -170 64 -343 129 -384 144 l-75 27 -380 -143z"/>
<path d="M1600 878 c-109 -42 -210 -178 -210 -283 l0 -35 3850 0 3850 0 0 35 c0 106 -102 242 -213 283 l-58 22 -3582 -1 -3582 0 -55 -21z"/>
</g>
</svg>
