<?xml version="1.0" standalone="no"?>
<!DOCTYPE svg PUBLIC "-//W3C//DTD SVG 20010904//EN" "http://www.w3.org/TR/2001/REC-SVG-20010904/DTD/svg10.dtd">
<svg xmlns="http://www.w3.org/2000/svg" version="1.0" width="512.000000pt" height="512.000000pt" viewBox="0 0 512.000000 512.000000" preserveAspectRatio="xMidYMid meet">
<metadata>
Created by potrace 1.16, written by Peter Selinger 2001-2019
<meta name="Producer" content="Online-Convert"/></metadata>
<g transform="translate(0.000000,512.000000) scale(0.100000,-0.100000)" fill="#fff" stroke="none">
<path d="M2405 4909 c-276 -54 -497 -223 -620 -472 -63 -128 -77 -188 -82 -352 -6 -163 13 -264 72 -391 59 -130 182 -276 289 -347 l38 -25 -204 -4 -204 -3 -76 -38 c-84 -41 -142 -97 -180 -175 -33 -68 -33 -216 1 -284 38 -79 95 -134 178 -175 69 -34 85 -38 174 -41 l99 -4 0 -87 c0 -233 -79 -529 -210 -791 -113 -225 -244 -403 -457 -621 l-143 -147 0 -351 0 -352 25 -24 24 -25 1431 0 1431 0 24 25 25 24 0 352 0 351 -148 151 c-154 159 -260 292 -354 443 -185 300 -290 618 -305 925 l-6 127 100 4 c91 3 107 7 176 41 83 41 140 96 178 175 20 39 24 63 24 142 0 79 -4 103 -24 142 -38 79 -95 134 -179 175 l-76 38 -204 3 -204 4 38 25 c58 38 160 140 210 210 181 251 207 617 62 895 -117 225 -304 375 -558 445 -67 18 -295 26 -365 12z"/>
</g>
</svg>
