<?xml version="1.0" standalone="no"?>
<!DOCTYPE svg PUBLIC "-//W3C//DTD SVG 20010904//EN" "http://www.w3.org/TR/2001/REC-SVG-20010904/DTD/svg10.dtd">
<svg xmlns="http://www.w3.org/2000/svg" version="1.0" width="512.000000pt" height="512.000000pt" viewBox="0 0 512.000000 512.000000" preserveAspectRatio="xMidYMid meet">
<metadata>
Created by potrace 1.16, written by Peter Selinger 2001-2019
<meta name="Producer" content="Online-Convert"/></metadata>
<g transform="translate(0.000000,512.000000) scale(0.100000,-0.100000)" fill="#000000" stroke="none">
<path d="M2350 4904 c-142 -39 -236 -138 -270 -283 -17 -72 -7 -235 20 -330 l21 -74 -131 -125 c-546 -521 -833 -1163 -781 -1753 27 -316 130 -626 300 -908 28 -46 50 -85 49 -86 -2 -2 -41 -12 -87 -24 -232 -60 -383 -169 -466 -337 -56 -113 -65 -175 -65 -456 0 -235 1 -249 20 -268 20 -20 33 -20 1600 -20 1567 0 1580 0 1600 20 19 19 20 33 20 268 0 280 -9 341 -64 455 -80 166 -245 285 -466 338 -30 7 -59 16 -64 20 -4 4 5 27 21 51 59 85 115 191 164 305 258 600 173 1301 -232 1913 -93 141 -249 308 -334 359 -68 42 -131 46 -186 15 -138 -80 -249 -496 -309 -1164 -11 -124 -23 -253 -26 -287 l-6 -63 -148 0 c-144 0 -150 1 -162 23 -21 37 -23 342 -3 499 29 238 92 476 168 641 19 41 72 133 118 204 248 382 333 693 244 891 -33 73 -84 123 -164 161 -51 23 -69 26 -191 28 -96 2 -151 -2 -190 -13z"/>
</g>
</svg>
